<svg width="35" height="35" viewBox="0 0 35 35" fill="none" xmlns="http://www.w3.org/2000/svg">
<path d="M30.9544 12.1267C30.9544 11.7271 31.0729 11.3365 31.2949 11.0043C31.5169 10.672 31.8324 10.4131 32.2016 10.2601C32.5707 10.1072 32.977 10.0672 33.3689 10.1452C33.7608 10.2231 34.1208 10.4156 34.4033 10.6981C34.6859 10.9807 34.8783 11.3406 34.9562 11.7326C35.0342 12.1245 34.9942 12.5307 34.8413 12.8999C34.6884 13.269 34.4294 13.5846 34.0972 13.8066C33.7649 14.0286 33.3743 14.1471 32.9747 14.1471C32.4389 14.1471 31.925 13.9342 31.5461 13.5553C31.1672 13.1764 30.9544 12.6625 30.9544 12.1267ZM28.9341 8.086C29.3336 8.086 29.7242 7.96751 30.0565 7.74551C30.3887 7.52351 30.6477 7.20797 30.8006 6.8388C30.9535 6.46963 30.9935 6.0634 30.9156 5.67149C30.8376 5.27958 30.6452 4.91959 30.3626 4.63704C30.0801 4.35448 29.7201 4.16206 29.3282 4.08411C28.9363 4.00615 28.5301 4.04616 28.1609 4.19908C27.7917 4.35199 27.4762 4.61095 27.2542 4.94319C27.0322 5.27544 26.9137 5.66606 26.9137 6.06564C26.9137 6.60148 27.1266 7.11536 27.5055 7.49425C27.8843 7.87314 28.3982 8.086 28.9341 8.086ZM33.7593 17.5143C33.4034 17.485 33.0505 17.5981 32.778 17.8289C32.5056 18.0597 32.3359 18.3892 32.3063 18.7451C32.0653 21.5609 31.025 24.2492 29.308 26.4939C27.5909 28.7385 25.2684 30.446 22.6138 31.4155C19.9593 32.385 17.083 32.5761 14.3235 31.9664C11.564 31.3567 9.03603 29.9714 7.03707 27.9737C5.0381 25.976 3.6513 23.4489 3.03984 20.6897C2.42837 17.9306 2.61767 15.0542 3.58548 12.3989C4.55328 9.74373 6.25932 7.42017 8.50286 5.70166C10.7464 3.98316 13.4341 2.9412 16.2497 2.69838C16.4266 2.68379 16.5989 2.6345 16.7567 2.55333C16.9145 2.47216 17.0548 2.3607 17.1696 2.22531C17.2843 2.08992 17.3713 1.93325 17.4255 1.76426C17.4797 1.59526 17.5001 1.41724 17.4855 1.24036C17.4709 1.06348 17.4216 0.891211 17.3404 0.733381C17.2593 0.575551 17.1478 0.435255 17.0124 0.320502C16.877 0.205748 16.7204 0.118786 16.5514 0.0645792C16.3824 0.0103726 16.2044 -0.0100164 16.0275 0.00457601C12.7007 0.290735 9.52486 1.5211 6.87358 3.5509C4.2223 5.58071 2.20588 8.32552 1.06156 11.4624C-0.0827544 14.5993 -0.307369 17.9978 0.414144 21.258C1.13566 24.5182 2.77328 27.5045 5.13435 29.8656C7.49543 32.2267 10.4817 33.8643 13.7419 34.5858C17.0021 35.3074 20.4005 35.0828 23.5373 33.9384C26.6742 32.7941 29.419 30.7777 31.4488 28.1264C33.4785 25.475 34.7089 22.2992 34.9951 18.9724C35.0103 18.7954 34.9903 18.6171 34.9363 18.4478C34.8824 18.2786 34.7954 18.1217 34.6806 17.9862C34.5657 17.8506 34.4252 17.7392 34.2671 17.6582C34.109 17.5772 33.9364 17.5283 33.7593 17.5143ZM17.4855 5.39219C19.883 5.39219 22.2267 6.10314 24.2201 7.43514C26.2136 8.76714 27.7673 10.6604 28.6848 12.8754C29.6023 15.0904 29.8423 17.5278 29.3746 19.8792C28.9068 22.2307 27.7523 24.3907 26.057 26.086C24.3617 27.7813 22.2018 28.9358 19.8504 29.4035C17.4989 29.8713 15.0616 29.6312 12.8466 28.7137C10.6316 27.7962 8.73839 26.2425 7.4064 24.249C6.07442 22.2556 5.36348 19.9119 5.36348 17.5143C5.36704 14.3004 6.64532 11.2192 8.91787 8.94662C11.1904 6.67405 14.2716 5.39576 17.4855 5.39219ZM16.1386 17.5143C16.1386 17.8715 16.2805 18.2141 16.5331 18.4667C16.7857 18.7193 17.1283 18.8612 17.4855 18.8612H25.5668C25.924 18.8612 26.2666 18.7193 26.5192 18.4667C26.7718 18.2141 26.9137 17.8715 26.9137 17.5143C26.9137 17.1571 26.7718 16.8145 26.5192 16.5619C26.2666 16.3093 25.924 16.1674 25.5668 16.1674H18.8324V9.4329C18.8324 9.07568 18.6905 8.73309 18.4379 8.4805C18.1853 8.22791 17.8427 8.086 17.4855 8.086C17.1283 8.086 16.7857 8.22791 16.5331 8.4805C16.2805 8.73309 16.1386 9.07568 16.1386 9.4329V17.5143ZM22.873 4.04529C23.2726 4.04529 23.6632 3.9268 23.9955 3.7048C24.3277 3.4828 24.5867 3.16726 24.7396 2.79809C24.8925 2.42892 24.9325 2.02269 24.8546 1.63078C24.7766 1.23887 24.5842 0.878876 24.3016 0.596325C24.0191 0.313773 23.6591 0.121353 23.2672 0.0433967C22.8753 -0.0345591 22.4691 0.00545063 22.0999 0.158367C21.7307 0.311283 21.4152 0.570236 21.1932 0.902482C20.9712 1.23473 20.8527 1.62534 20.8527 2.02493C20.8527 2.56076 21.0656 3.07465 21.4445 3.45354C21.8233 3.83243 22.3372 4.04529 22.873 4.04529Z" fill="#1C6B31"/>
</svg>
